<?xml version="1.0" encoding="utf-8"?>
<!-- Generator: Adobe Illustrator 26.2.1, SVG Export Plug-In . SVG Version: 6.00 Build 0)  -->
<svg version="1.1" id="Layer_1" xmlns="http://www.w3.org/2000/svg" xmlns:xlink="http://www.w3.org/1999/xlink" x="0px" y="0px"
	 viewBox="0 0 130 130" style="enable-background:new 0 0 130 130;" xml:space="preserve">
<style type="text/css">
	.st0{fill:#FFFFFF;stroke:#060810;stroke-width:3;}
	.st1{fill:#CF7976;}
</style>
<circle class="st0" cx="65.3" cy="65.3" r="63"/>
<g>
	<path class="st1" d="M65.4,69.7V57.1c2.9,0,4.3-1.1,4.3-3.3c0-2-1.1-3-3.3-3c-2.2,0-3.3,1.4-3.3,4.1v31.4H48.8V56.4
		c0-3.1,0.3-5.6,0.9-7.6c0.6-2,1.7-3.8,3.2-5.5c1.7-1.9,3.8-3.4,6.3-4.5s5.1-1.7,7.8-1.7c4.9,0,9,1.6,12.3,4.9c3.3,3.3,5,7.3,5,12.2
		c0,4.7-1.5,8.5-4.5,11.5c-2.7,2.7-6.8,4-12.3,4L65.4,69.7z"/>
</g>
</svg>
